<svg preserveAspectRatio="none" overflow="visible" style="display: block;" width="120" height="48" viewBox="0 0 120 48" fill="none" xmlns="http://www.w3.org/2000/svg">
<g id="Placeholder Logo">
<path id="Logo" fill-rule="evenodd" clip-rule="evenodd" d="M30.4728 16.4876L30.688 16.8719C30.9591 17.339 31.1022 17.8694 31.1031 18.4094V30.325C31.0987 30.8645 30.9558 31.394 30.688 31.8625L30.4574 32.2469C30.1941 32.7174 29.8056 33.1058 29.3351 33.3692L19.0185 39.3347C18.5513 39.6056 18.021 39.7488 17.481 39.7498H17.0505C16.5096 39.7549 15.9778 39.6113 15.513 39.3347L5.18103 33.3846C4.72053 33.1082 4.33509 32.7227 4.05867 32.2622L3.84342 31.8779C3.57243 31.4107 3.42925 30.8804 3.42829 30.3404V18.4247C3.42925 17.8847 3.57243 17.3544 3.84342 16.8873L4.05867 16.5029C4.32812 16.037 4.71513 15.65 5.18103 15.3806L15.4976 9.41505C15.9648 9.14408 16.495 9.0009 17.0351 8.99993H17.481C18.021 9.0009 18.5513 9.14408 19.0185 9.41505L29.3351 15.3652C29.8036 15.6364 30.1952 16.0227 30.4728 16.4876ZM17.481 12.0749H17.0351L8.04079 17.2716L17.2657 22.5913L26.4907 17.2716L17.481 12.0749ZM27.7975 30.7094L18.8032 35.9062V25.2667L28.0281 19.9316V30.3251L27.7975 30.7094ZM71.1971 31.755H68.009V14.9287H71.1971V31.755ZM42.4285 32.1157H45.993V26.0051H47.5428L51.3287 32.1157H55.1368L50.9524 25.3852C52.8122 24.8317 54.2069 23.5697 54.2069 21.1786V21.09C54.2069 17.8134 51.838 16.2857 48.0963 16.2857H42.4285V32.1157ZM45.993 23.5697V19.0311H48.0077C49.7347 19.0311 50.7089 19.5846 50.7089 21.2007V21.2893C50.7089 22.817 49.8011 23.5697 48.0077 23.5697H45.993ZM60.9262 31.998C64.0922 31.998 66.0848 30.6032 66.4611 28.1013H63.428C63.2287 29.0755 62.4981 29.7176 61.0148 29.7176C59.2657 29.7176 58.2252 28.6106 58.1366 26.6844H66.4833V25.7988C66.4833 21.6586 63.8265 19.9096 60.8376 19.9096C57.4724 19.9096 54.882 22.2786 54.882 25.9317V26.1087C54.882 29.8062 57.4281 31.998 60.9262 31.998ZM58.1808 24.714C58.4244 23.0756 59.3985 22.1236 60.8376 22.1236C62.3653 22.1236 63.2509 22.9649 63.3616 24.714H58.1808ZM77.3131 31.9989C79.2173 31.9989 80.3903 31.1133 80.9881 29.9399V31.7554H84.1763V20.1762H80.9881V26.9732C80.9881 28.678 79.9253 29.5193 78.5753 29.5193C77.2028 29.5193 76.5601 28.7665 76.5601 27.1946V20.1762H73.3723V27.6374C73.3723 30.6705 75.0548 31.9989 77.3131 31.9989ZM89.5636 31.7544H86.3528V20.1753H89.5636V21.9465C90.1388 20.8616 91.3786 19.9096 93.1058 19.9096C94.6336 19.9096 95.7848 20.5517 96.3383 21.9243C97.2683 20.5295 98.7736 19.9096 100.235 19.9096C102.383 19.9096 104.043 21.2601 104.043 24.3376V31.7544H100.855V24.6918C100.855 23.2084 100.19 22.5442 99.0391 22.5442C97.7993 22.5442 96.8033 23.3413 96.8033 24.9132V31.7544H93.6151V24.6918C93.6151 23.2084 92.9288 22.5442 91.7993 22.5442C90.5596 22.5442 89.5636 23.3413 89.5636 24.9132V31.7544ZM111.456 31.998C114.622 31.998 116.615 30.6032 116.991 28.1013H113.958C113.758 29.0755 113.028 29.7176 111.544 29.7176C109.795 29.7176 108.755 28.6106 108.667 26.6844H117.013V25.7988C117.013 21.6586 114.356 19.9096 111.367 19.9096C108.002 19.9096 105.412 22.2786 105.412 25.9317V26.1087C105.412 29.8062 107.958 31.998 111.456 31.998ZM108.711 24.714C108.955 23.0756 109.929 22.1236 111.367 22.1236C112.895 22.1236 113.781 22.9649 113.892 24.714H108.711Z" fill="white"/>
</g>
</svg>
